<mxfile host="app.diagrams.net" modified="2021-02-17T10:32:24.420Z" agent="5.0 (Windows NT 10.0; Win64; x64) AppleWebKit/537.36 (KHTML, like Gecko) Chrome/88.0.4324.96 Safari/537.36 Edg/88.0.705.56" etag="L6yQNE58yTX7B0efOLg6" version="14.3.2" type="github">
  <diagram id="RQAdShiX3je_vpYYWlSd" name="Page-1">
    <mxGraphModel dx="1422" dy="714" grid="1" gridSize="10" guides="1" tooltips="1" connect="1" arrows="1" fold="1" page="1" pageScale="1" pageWidth="827" pageHeight="1169" math="0" shadow="0">
      <root>
        <mxCell id="0" />
        <mxCell id="1" parent="0" />
        <mxCell id="z7pjndrLc557WYnpNfDH-2" value="" style="shape=table;html=1;whiteSpace=wrap;startSize=0;container=1;collapsible=0;childLayout=tableLayout;" vertex="1" parent="1">
          <mxGeometry x="320" y="40" width="180" height="120" as="geometry" />
        </mxCell>
        <mxCell id="z7pjndrLc557WYnpNfDH-3" value="" style="shape=partialRectangle;html=1;whiteSpace=wrap;collapsible=0;dropTarget=0;pointerEvents=0;fillColor=none;top=0;left=0;bottom=0;right=0;points=[[0,0.5],[1,0.5]];portConstraint=eastwest;" vertex="1" parent="z7pjndrLc557WYnpNfDH-2">
          <mxGeometry width="180" height="40" as="geometry" />
        </mxCell>
        <mxCell id="z7pjndrLc557WYnpNfDH-4" value="" style="shape=partialRectangle;html=1;whiteSpace=wrap;connectable=0;fillColor=none;top=0;left=0;bottom=0;right=0;overflow=hidden;" vertex="1" parent="z7pjndrLc557WYnpNfDH-3">
          <mxGeometry width="60" height="40" as="geometry" />
        </mxCell>
        <mxCell id="z7pjndrLc557WYnpNfDH-5" value="" style="shape=partialRectangle;html=1;whiteSpace=wrap;connectable=0;fillColor=none;top=0;left=0;bottom=0;right=0;overflow=hidden;" vertex="1" parent="z7pjndrLc557WYnpNfDH-3">
          <mxGeometry x="60" width="60" height="40" as="geometry" />
        </mxCell>
        <mxCell id="z7pjndrLc557WYnpNfDH-6" value="" style="shape=partialRectangle;html=1;whiteSpace=wrap;connectable=0;fillColor=none;top=0;left=0;bottom=0;right=0;overflow=hidden;" vertex="1" parent="z7pjndrLc557WYnpNfDH-3">
          <mxGeometry x="120" width="60" height="40" as="geometry" />
        </mxCell>
        <mxCell id="z7pjndrLc557WYnpNfDH-7" value="" style="shape=partialRectangle;html=1;whiteSpace=wrap;collapsible=0;dropTarget=0;pointerEvents=0;fillColor=none;top=0;left=0;bottom=0;right=0;points=[[0,0.5],[1,0.5]];portConstraint=eastwest;" vertex="1" parent="z7pjndrLc557WYnpNfDH-2">
          <mxGeometry y="40" width="180" height="40" as="geometry" />
        </mxCell>
        <mxCell id="z7pjndrLc557WYnpNfDH-8" value="" style="shape=partialRectangle;html=1;whiteSpace=wrap;connectable=0;fillColor=none;top=0;left=0;bottom=0;right=0;overflow=hidden;" vertex="1" parent="z7pjndrLc557WYnpNfDH-7">
          <mxGeometry width="60" height="40" as="geometry" />
        </mxCell>
        <mxCell id="z7pjndrLc557WYnpNfDH-9" value="" style="shape=partialRectangle;html=1;whiteSpace=wrap;connectable=0;fillColor=none;top=0;left=0;bottom=0;right=0;overflow=hidden;" vertex="1" parent="z7pjndrLc557WYnpNfDH-7">
          <mxGeometry x="60" width="60" height="40" as="geometry" />
        </mxCell>
        <mxCell id="z7pjndrLc557WYnpNfDH-10" value="" style="shape=partialRectangle;html=1;whiteSpace=wrap;connectable=0;fillColor=none;top=0;left=0;bottom=0;right=0;overflow=hidden;" vertex="1" parent="z7pjndrLc557WYnpNfDH-7">
          <mxGeometry x="120" width="60" height="40" as="geometry" />
        </mxCell>
        <mxCell id="z7pjndrLc557WYnpNfDH-11" value="" style="shape=partialRectangle;html=1;whiteSpace=wrap;collapsible=0;dropTarget=0;pointerEvents=0;fillColor=none;top=0;left=0;bottom=0;right=0;points=[[0,0.5],[1,0.5]];portConstraint=eastwest;" vertex="1" parent="z7pjndrLc557WYnpNfDH-2">
          <mxGeometry y="80" width="180" height="40" as="geometry" />
        </mxCell>
        <mxCell id="z7pjndrLc557WYnpNfDH-12" value="" style="shape=partialRectangle;html=1;whiteSpace=wrap;connectable=0;fillColor=none;top=0;left=0;bottom=0;right=0;overflow=hidden;" vertex="1" parent="z7pjndrLc557WYnpNfDH-11">
          <mxGeometry width="60" height="40" as="geometry" />
        </mxCell>
        <mxCell id="z7pjndrLc557WYnpNfDH-13" value="" style="shape=partialRectangle;html=1;whiteSpace=wrap;connectable=0;fillColor=none;top=0;left=0;bottom=0;right=0;overflow=hidden;" vertex="1" parent="z7pjndrLc557WYnpNfDH-11">
          <mxGeometry x="60" width="60" height="40" as="geometry" />
        </mxCell>
        <mxCell id="z7pjndrLc557WYnpNfDH-14" value="" style="shape=partialRectangle;html=1;whiteSpace=wrap;connectable=0;fillColor=none;top=0;left=0;bottom=0;right=0;overflow=hidden;" vertex="1" parent="z7pjndrLc557WYnpNfDH-11">
          <mxGeometry x="120" width="60" height="40" as="geometry" />
        </mxCell>
        <mxCell id="z7pjndrLc557WYnpNfDH-15" value="标记" style="edgeStyle=orthogonalEdgeStyle;rounded=0;orthogonalLoop=1;jettySize=auto;html=1;fontSize=20;" edge="1" parent="1" source="z7pjndrLc557WYnpNfDH-16" target="z7pjndrLc557WYnpNfDH-38">
          <mxGeometry relative="1" as="geometry" />
        </mxCell>
        <mxCell id="z7pjndrLc557WYnpNfDH-16" value="" style="shape=table;html=1;whiteSpace=wrap;startSize=0;container=1;collapsible=0;childLayout=tableLayout;rowLines=1;columnLines=1;" vertex="1" parent="1">
          <mxGeometry x="320" y="40" width="240" height="160" as="geometry" />
        </mxCell>
        <mxCell id="z7pjndrLc557WYnpNfDH-17" style="shape=partialRectangle;html=1;whiteSpace=wrap;collapsible=0;dropTarget=0;pointerEvents=0;fillColor=none;top=0;left=0;bottom=0;right=0;points=[[0,0.5],[1,0.5]];portConstraint=eastwest;" vertex="1" parent="z7pjndrLc557WYnpNfDH-16">
          <mxGeometry width="240" height="40" as="geometry" />
        </mxCell>
        <mxCell id="z7pjndrLc557WYnpNfDH-18" style="shape=partialRectangle;html=1;whiteSpace=wrap;connectable=0;fillColor=#0050ef;top=0;left=0;bottom=0;right=0;overflow=hidden;strokeColor=#001DBC;fontColor=#ffffff;" vertex="1" parent="z7pjndrLc557WYnpNfDH-17">
          <mxGeometry width="60" height="40" as="geometry" />
        </mxCell>
        <mxCell id="z7pjndrLc557WYnpNfDH-19" style="shape=partialRectangle;html=1;whiteSpace=wrap;connectable=0;fillColor=#0050ef;top=0;left=0;bottom=0;right=0;overflow=hidden;strokeColor=#001DBC;fontColor=#ffffff;" vertex="1" parent="z7pjndrLc557WYnpNfDH-17">
          <mxGeometry x="60" width="60" height="40" as="geometry" />
        </mxCell>
        <mxCell id="z7pjndrLc557WYnpNfDH-20" style="shape=partialRectangle;html=1;whiteSpace=wrap;connectable=0;fillColor=#0050ef;top=0;left=0;bottom=0;right=0;overflow=hidden;strokeColor=#001DBC;fontColor=#ffffff;" vertex="1" parent="z7pjndrLc557WYnpNfDH-17">
          <mxGeometry x="120" width="60" height="40" as="geometry" />
        </mxCell>
        <mxCell id="z7pjndrLc557WYnpNfDH-21" style="shape=partialRectangle;html=1;whiteSpace=wrap;connectable=0;fillColor=none;top=0;left=0;bottom=0;right=0;overflow=hidden;" vertex="1" parent="z7pjndrLc557WYnpNfDH-17">
          <mxGeometry x="180" width="60" height="40" as="geometry" />
        </mxCell>
        <mxCell id="z7pjndrLc557WYnpNfDH-22" value="" style="shape=partialRectangle;html=1;whiteSpace=wrap;collapsible=0;dropTarget=0;pointerEvents=0;fillColor=none;top=0;left=0;bottom=0;right=0;points=[[0,0.5],[1,0.5]];portConstraint=eastwest;" vertex="1" parent="z7pjndrLc557WYnpNfDH-16">
          <mxGeometry y="40" width="240" height="40" as="geometry" />
        </mxCell>
        <mxCell id="z7pjndrLc557WYnpNfDH-23" style="shape=partialRectangle;html=1;whiteSpace=wrap;connectable=0;fillColor=none;top=0;left=0;bottom=0;right=0;overflow=hidden;" vertex="1" parent="z7pjndrLc557WYnpNfDH-22">
          <mxGeometry width="60" height="40" as="geometry" />
        </mxCell>
        <mxCell id="z7pjndrLc557WYnpNfDH-24" value="" style="shape=partialRectangle;html=1;whiteSpace=wrap;connectable=0;fillColor=#0050ef;top=0;left=0;bottom=0;right=0;overflow=hidden;strokeColor=#001DBC;fontColor=#ffffff;" vertex="1" parent="z7pjndrLc557WYnpNfDH-22">
          <mxGeometry x="60" width="60" height="40" as="geometry" />
        </mxCell>
        <mxCell id="z7pjndrLc557WYnpNfDH-25" value="" style="shape=partialRectangle;html=1;whiteSpace=wrap;connectable=0;fillColor=#0050ef;top=0;left=0;bottom=0;right=0;overflow=hidden;strokeColor=#001DBC;fontColor=#ffffff;" vertex="1" parent="z7pjndrLc557WYnpNfDH-22">
          <mxGeometry x="120" width="60" height="40" as="geometry" />
        </mxCell>
        <mxCell id="z7pjndrLc557WYnpNfDH-26" style="shape=partialRectangle;html=1;whiteSpace=wrap;connectable=0;fillColor=none;top=0;left=0;bottom=0;right=0;overflow=hidden;" vertex="1" parent="z7pjndrLc557WYnpNfDH-22">
          <mxGeometry x="180" width="60" height="40" as="geometry" />
        </mxCell>
        <mxCell id="z7pjndrLc557WYnpNfDH-27" value="" style="shape=partialRectangle;html=1;whiteSpace=wrap;collapsible=0;dropTarget=0;pointerEvents=0;fillColor=none;top=0;left=0;bottom=0;right=0;points=[[0,0.5],[1,0.5]];portConstraint=eastwest;" vertex="1" parent="z7pjndrLc557WYnpNfDH-16">
          <mxGeometry y="80" width="240" height="40" as="geometry" />
        </mxCell>
        <mxCell id="z7pjndrLc557WYnpNfDH-28" style="shape=partialRectangle;html=1;whiteSpace=wrap;connectable=0;fillColor=none;top=0;left=0;bottom=0;right=0;overflow=hidden;" vertex="1" parent="z7pjndrLc557WYnpNfDH-27">
          <mxGeometry width="60" height="40" as="geometry" />
        </mxCell>
        <mxCell id="z7pjndrLc557WYnpNfDH-29" value="" style="shape=partialRectangle;html=1;whiteSpace=wrap;connectable=0;fillColor=#0050ef;top=0;left=0;bottom=0;right=0;overflow=hidden;strokeColor=#001DBC;fontColor=#ffffff;" vertex="1" parent="z7pjndrLc557WYnpNfDH-27">
          <mxGeometry x="60" width="60" height="40" as="geometry" />
        </mxCell>
        <mxCell id="z7pjndrLc557WYnpNfDH-30" value="" style="shape=partialRectangle;html=1;whiteSpace=wrap;connectable=0;fillColor=none;top=0;left=0;bottom=0;right=0;overflow=hidden;" vertex="1" parent="z7pjndrLc557WYnpNfDH-27">
          <mxGeometry x="120" width="60" height="40" as="geometry" />
        </mxCell>
        <mxCell id="z7pjndrLc557WYnpNfDH-31" style="shape=partialRectangle;html=1;whiteSpace=wrap;connectable=0;fillColor=#0050ef;top=0;left=0;bottom=0;right=0;overflow=hidden;strokeColor=#001DBC;fontColor=#ffffff;" vertex="1" parent="z7pjndrLc557WYnpNfDH-27">
          <mxGeometry x="180" width="60" height="40" as="geometry" />
        </mxCell>
        <mxCell id="z7pjndrLc557WYnpNfDH-32" value="" style="shape=partialRectangle;html=1;whiteSpace=wrap;collapsible=0;dropTarget=0;pointerEvents=0;fillColor=none;top=0;left=0;bottom=0;right=0;points=[[0,0.5],[1,0.5]];portConstraint=eastwest;" vertex="1" parent="z7pjndrLc557WYnpNfDH-16">
          <mxGeometry y="120" width="240" height="40" as="geometry" />
        </mxCell>
        <mxCell id="z7pjndrLc557WYnpNfDH-33" style="shape=partialRectangle;html=1;whiteSpace=wrap;connectable=0;fillColor=#0050ef;top=0;left=0;bottom=0;right=0;overflow=hidden;strokeColor=#001DBC;fontColor=#ffffff;" vertex="1" parent="z7pjndrLc557WYnpNfDH-32">
          <mxGeometry width="60" height="40" as="geometry" />
        </mxCell>
        <mxCell id="z7pjndrLc557WYnpNfDH-34" value="" style="shape=partialRectangle;html=1;whiteSpace=wrap;connectable=0;fillColor=none;top=0;left=0;bottom=0;right=0;overflow=hidden;" vertex="1" parent="z7pjndrLc557WYnpNfDH-32">
          <mxGeometry x="60" width="60" height="40" as="geometry" />
        </mxCell>
        <mxCell id="z7pjndrLc557WYnpNfDH-35" value="" style="shape=partialRectangle;html=1;whiteSpace=wrap;connectable=0;fillColor=#0050ef;top=0;left=0;bottom=0;right=0;overflow=hidden;strokeColor=#001DBC;fontColor=#ffffff;" vertex="1" parent="z7pjndrLc557WYnpNfDH-32">
          <mxGeometry x="120" width="60" height="40" as="geometry" />
        </mxCell>
        <mxCell id="z7pjndrLc557WYnpNfDH-36" style="shape=partialRectangle;html=1;whiteSpace=wrap;connectable=0;fillColor=none;top=0;left=0;bottom=0;right=0;overflow=hidden;" vertex="1" parent="z7pjndrLc557WYnpNfDH-32">
          <mxGeometry x="180" width="60" height="40" as="geometry" />
        </mxCell>
        <mxCell id="z7pjndrLc557WYnpNfDH-37" value="&lt;span style=&quot;font-size: 20px&quot;&gt;整理&lt;/span&gt;" style="edgeStyle=orthogonalEdgeStyle;rounded=0;orthogonalLoop=1;jettySize=auto;html=1;" edge="1" parent="1" source="z7pjndrLc557WYnpNfDH-38" target="z7pjndrLc557WYnpNfDH-59">
          <mxGeometry relative="1" as="geometry" />
        </mxCell>
        <mxCell id="z7pjndrLc557WYnpNfDH-38" value="" style="shape=table;html=1;whiteSpace=wrap;startSize=0;container=1;collapsible=0;childLayout=tableLayout;rowLines=1;columnLines=1;" vertex="1" parent="1">
          <mxGeometry x="320" y="280" width="240" height="160" as="geometry" />
        </mxCell>
        <mxCell id="z7pjndrLc557WYnpNfDH-39" style="shape=partialRectangle;html=1;whiteSpace=wrap;collapsible=0;dropTarget=0;pointerEvents=0;fillColor=none;top=0;left=0;bottom=0;right=0;points=[[0,0.5],[1,0.5]];portConstraint=eastwest;" vertex="1" parent="z7pjndrLc557WYnpNfDH-38">
          <mxGeometry width="240" height="40" as="geometry" />
        </mxCell>
        <mxCell id="z7pjndrLc557WYnpNfDH-40" style="shape=partialRectangle;html=1;whiteSpace=wrap;connectable=0;fillColor=#0050ef;top=0;left=0;bottom=0;right=0;overflow=hidden;strokeColor=#001DBC;fontColor=#ffffff;" vertex="1" parent="z7pjndrLc557WYnpNfDH-39">
          <mxGeometry width="60" height="40" as="geometry" />
        </mxCell>
        <mxCell id="z7pjndrLc557WYnpNfDH-41" style="shape=partialRectangle;html=1;whiteSpace=wrap;connectable=0;fillColor=#0050ef;top=0;left=0;bottom=0;right=0;overflow=hidden;strokeColor=#001DBC;fontColor=#ffffff;" vertex="1" parent="z7pjndrLc557WYnpNfDH-39">
          <mxGeometry x="60" width="60" height="40" as="geometry" />
        </mxCell>
        <mxCell id="z7pjndrLc557WYnpNfDH-42" style="shape=partialRectangle;html=1;whiteSpace=wrap;connectable=0;fillColor=#0050ef;top=0;left=0;bottom=0;right=0;overflow=hidden;strokeColor=#001DBC;fontColor=#ffffff;" vertex="1" parent="z7pjndrLc557WYnpNfDH-39">
          <mxGeometry x="120" width="60" height="40" as="geometry" />
        </mxCell>
        <mxCell id="z7pjndrLc557WYnpNfDH-43" style="shape=partialRectangle;html=1;whiteSpace=wrap;connectable=0;fillColor=none;top=0;left=0;bottom=0;right=0;overflow=hidden;" vertex="1" parent="z7pjndrLc557WYnpNfDH-39">
          <mxGeometry x="180" width="60" height="40" as="geometry" />
        </mxCell>
        <mxCell id="z7pjndrLc557WYnpNfDH-44" value="" style="shape=partialRectangle;html=1;whiteSpace=wrap;collapsible=0;dropTarget=0;pointerEvents=0;fillColor=none;top=0;left=0;bottom=0;right=0;points=[[0,0.5],[1,0.5]];portConstraint=eastwest;" vertex="1" parent="z7pjndrLc557WYnpNfDH-38">
          <mxGeometry y="40" width="240" height="40" as="geometry" />
        </mxCell>
        <mxCell id="z7pjndrLc557WYnpNfDH-45" style="shape=partialRectangle;html=1;whiteSpace=wrap;connectable=0;fillColor=none;top=0;left=0;bottom=0;right=0;overflow=hidden;" vertex="1" parent="z7pjndrLc557WYnpNfDH-44">
          <mxGeometry width="60" height="40" as="geometry" />
        </mxCell>
        <mxCell id="z7pjndrLc557WYnpNfDH-46" value="" style="shape=partialRectangle;html=1;whiteSpace=wrap;connectable=0;fillColor=#d80073;top=0;left=0;bottom=0;right=0;overflow=hidden;strokeColor=#A50040;fontColor=#ffffff;" vertex="1" parent="z7pjndrLc557WYnpNfDH-44">
          <mxGeometry x="60" width="60" height="40" as="geometry" />
        </mxCell>
        <mxCell id="z7pjndrLc557WYnpNfDH-47" value="" style="shape=partialRectangle;html=1;whiteSpace=wrap;connectable=0;fillColor=#0050ef;top=0;left=0;bottom=0;right=0;overflow=hidden;strokeColor=#001DBC;fontColor=#ffffff;" vertex="1" parent="z7pjndrLc557WYnpNfDH-44">
          <mxGeometry x="120" width="60" height="40" as="geometry" />
        </mxCell>
        <mxCell id="z7pjndrLc557WYnpNfDH-48" style="shape=partialRectangle;html=1;whiteSpace=wrap;connectable=0;fillColor=none;top=0;left=0;bottom=0;right=0;overflow=hidden;" vertex="1" parent="z7pjndrLc557WYnpNfDH-44">
          <mxGeometry x="180" width="60" height="40" as="geometry" />
        </mxCell>
        <mxCell id="z7pjndrLc557WYnpNfDH-49" value="" style="shape=partialRectangle;html=1;whiteSpace=wrap;collapsible=0;dropTarget=0;pointerEvents=0;fillColor=none;top=0;left=0;bottom=0;right=0;points=[[0,0.5],[1,0.5]];portConstraint=eastwest;" vertex="1" parent="z7pjndrLc557WYnpNfDH-38">
          <mxGeometry y="80" width="240" height="40" as="geometry" />
        </mxCell>
        <mxCell id="z7pjndrLc557WYnpNfDH-50" style="shape=partialRectangle;html=1;whiteSpace=wrap;connectable=0;fillColor=none;top=0;left=0;bottom=0;right=0;overflow=hidden;" vertex="1" parent="z7pjndrLc557WYnpNfDH-49">
          <mxGeometry width="60" height="40" as="geometry" />
        </mxCell>
        <mxCell id="z7pjndrLc557WYnpNfDH-51" value="" style="shape=partialRectangle;html=1;whiteSpace=wrap;connectable=0;fillColor=#d80073;top=0;left=0;bottom=0;right=0;overflow=hidden;strokeColor=#A50040;fontColor=#ffffff;" vertex="1" parent="z7pjndrLc557WYnpNfDH-49">
          <mxGeometry x="60" width="60" height="40" as="geometry" />
        </mxCell>
        <mxCell id="z7pjndrLc557WYnpNfDH-52" value="" style="shape=partialRectangle;html=1;whiteSpace=wrap;connectable=0;fillColor=none;top=0;left=0;bottom=0;right=0;overflow=hidden;" vertex="1" parent="z7pjndrLc557WYnpNfDH-49">
          <mxGeometry x="120" width="60" height="40" as="geometry" />
        </mxCell>
        <mxCell id="z7pjndrLc557WYnpNfDH-53" style="shape=partialRectangle;html=1;whiteSpace=wrap;connectable=0;fillColor=#d80073;top=0;left=0;bottom=0;right=0;overflow=hidden;strokeColor=#A50040;fontColor=#ffffff;" vertex="1" parent="z7pjndrLc557WYnpNfDH-49">
          <mxGeometry x="180" width="60" height="40" as="geometry" />
        </mxCell>
        <mxCell id="z7pjndrLc557WYnpNfDH-54" value="" style="shape=partialRectangle;html=1;whiteSpace=wrap;collapsible=0;dropTarget=0;pointerEvents=0;fillColor=none;top=0;left=0;bottom=0;right=0;points=[[0,0.5],[1,0.5]];portConstraint=eastwest;" vertex="1" parent="z7pjndrLc557WYnpNfDH-38">
          <mxGeometry y="120" width="240" height="40" as="geometry" />
        </mxCell>
        <mxCell id="z7pjndrLc557WYnpNfDH-55" style="shape=partialRectangle;html=1;whiteSpace=wrap;connectable=0;fillColor=#0050ef;top=0;left=0;bottom=0;right=0;overflow=hidden;strokeColor=#001DBC;fontColor=#ffffff;" vertex="1" parent="z7pjndrLc557WYnpNfDH-54">
          <mxGeometry width="60" height="40" as="geometry" />
        </mxCell>
        <mxCell id="z7pjndrLc557WYnpNfDH-56" value="" style="shape=partialRectangle;html=1;whiteSpace=wrap;connectable=0;fillColor=none;top=0;left=0;bottom=0;right=0;overflow=hidden;" vertex="1" parent="z7pjndrLc557WYnpNfDH-54">
          <mxGeometry x="60" width="60" height="40" as="geometry" />
        </mxCell>
        <mxCell id="z7pjndrLc557WYnpNfDH-57" value="" style="shape=partialRectangle;html=1;whiteSpace=wrap;connectable=0;fillColor=#0050ef;top=0;left=0;bottom=0;right=0;overflow=hidden;strokeColor=#001DBC;fontColor=#ffffff;" vertex="1" parent="z7pjndrLc557WYnpNfDH-54">
          <mxGeometry x="120" width="60" height="40" as="geometry" />
        </mxCell>
        <mxCell id="z7pjndrLc557WYnpNfDH-58" style="shape=partialRectangle;html=1;whiteSpace=wrap;connectable=0;fillColor=none;top=0;left=0;bottom=0;right=0;overflow=hidden;" vertex="1" parent="z7pjndrLc557WYnpNfDH-54">
          <mxGeometry x="180" width="60" height="40" as="geometry" />
        </mxCell>
        <mxCell id="z7pjndrLc557WYnpNfDH-101" value="&lt;font style=&quot;font-size: 20px&quot;&gt;清理&lt;/font&gt;" style="edgeStyle=orthogonalEdgeStyle;rounded=0;orthogonalLoop=1;jettySize=auto;html=1;" edge="1" parent="1" source="z7pjndrLc557WYnpNfDH-59" target="z7pjndrLc557WYnpNfDH-80">
          <mxGeometry relative="1" as="geometry" />
        </mxCell>
        <mxCell id="z7pjndrLc557WYnpNfDH-59" value="" style="shape=table;html=1;whiteSpace=wrap;startSize=0;container=1;collapsible=0;childLayout=tableLayout;rowLines=1;columnLines=1;fillColor=none;" vertex="1" parent="1">
          <mxGeometry x="320" y="520" width="240" height="160" as="geometry" />
        </mxCell>
        <mxCell id="z7pjndrLc557WYnpNfDH-60" style="shape=partialRectangle;html=1;whiteSpace=wrap;collapsible=0;dropTarget=0;pointerEvents=0;fillColor=none;top=0;left=0;bottom=0;right=0;points=[[0,0.5],[1,0.5]];portConstraint=eastwest;" vertex="1" parent="z7pjndrLc557WYnpNfDH-59">
          <mxGeometry width="240" height="40" as="geometry" />
        </mxCell>
        <mxCell id="z7pjndrLc557WYnpNfDH-61" style="shape=partialRectangle;html=1;whiteSpace=wrap;connectable=0;fillColor=#0050ef;top=0;left=0;bottom=0;right=0;overflow=hidden;strokeColor=#001DBC;fontColor=#ffffff;" vertex="1" parent="z7pjndrLc557WYnpNfDH-60">
          <mxGeometry width="60" height="40" as="geometry" />
        </mxCell>
        <mxCell id="z7pjndrLc557WYnpNfDH-62" style="shape=partialRectangle;html=1;whiteSpace=wrap;connectable=0;fillColor=#0050ef;top=0;left=0;bottom=0;right=0;overflow=hidden;strokeColor=#001DBC;fontColor=#ffffff;" vertex="1" parent="z7pjndrLc557WYnpNfDH-60">
          <mxGeometry x="60" width="60" height="40" as="geometry" />
        </mxCell>
        <mxCell id="z7pjndrLc557WYnpNfDH-63" style="shape=partialRectangle;html=1;whiteSpace=wrap;connectable=0;fillColor=#0050ef;top=0;left=0;bottom=0;right=0;overflow=hidden;strokeColor=#001DBC;fontColor=#ffffff;" vertex="1" parent="z7pjndrLc557WYnpNfDH-60">
          <mxGeometry x="120" width="60" height="40" as="geometry" />
        </mxCell>
        <mxCell id="z7pjndrLc557WYnpNfDH-64" style="shape=partialRectangle;html=1;whiteSpace=wrap;connectable=0;fillColor=#0050ef;top=0;left=0;bottom=0;right=0;overflow=hidden;strokeColor=#001DBC;fontColor=#ffffff;" vertex="1" parent="z7pjndrLc557WYnpNfDH-60">
          <mxGeometry x="180" width="60" height="40" as="geometry" />
        </mxCell>
        <mxCell id="z7pjndrLc557WYnpNfDH-65" value="" style="shape=partialRectangle;html=1;whiteSpace=wrap;collapsible=0;dropTarget=0;pointerEvents=0;fillColor=none;top=0;left=0;bottom=0;right=0;points=[[0,0.5],[1,0.5]];portConstraint=eastwest;" vertex="1" parent="z7pjndrLc557WYnpNfDH-59">
          <mxGeometry y="40" width="240" height="40" as="geometry" />
        </mxCell>
        <mxCell id="z7pjndrLc557WYnpNfDH-66" style="shape=partialRectangle;html=1;whiteSpace=wrap;connectable=0;fillColor=#0050ef;top=0;left=0;bottom=0;right=0;overflow=hidden;strokeColor=#001DBC;fontColor=#ffffff;" vertex="1" parent="z7pjndrLc557WYnpNfDH-65">
          <mxGeometry width="60" height="40" as="geometry" />
        </mxCell>
        <mxCell id="z7pjndrLc557WYnpNfDH-67" value="" style="shape=partialRectangle;html=1;whiteSpace=wrap;connectable=0;top=0;left=0;bottom=0;right=0;overflow=hidden;fillColor=#0050ef;strokeColor=#001DBC;fontColor=#ffffff;" vertex="1" parent="z7pjndrLc557WYnpNfDH-65">
          <mxGeometry x="60" width="60" height="40" as="geometry" />
        </mxCell>
        <mxCell id="z7pjndrLc557WYnpNfDH-68" value="" style="shape=partialRectangle;html=1;whiteSpace=wrap;connectable=0;top=0;left=0;bottom=0;right=0;overflow=hidden;strokeColor=#A50040;fontColor=#ffffff;fillColor=#d80073;" vertex="1" parent="z7pjndrLc557WYnpNfDH-65">
          <mxGeometry x="120" width="60" height="40" as="geometry" />
        </mxCell>
        <mxCell id="z7pjndrLc557WYnpNfDH-69" style="shape=partialRectangle;html=1;whiteSpace=wrap;connectable=0;fillColor=#d80073;top=0;left=0;bottom=0;right=0;overflow=hidden;strokeColor=#A50040;fontColor=#ffffff;" vertex="1" parent="z7pjndrLc557WYnpNfDH-65">
          <mxGeometry x="180" width="60" height="40" as="geometry" />
        </mxCell>
        <mxCell id="z7pjndrLc557WYnpNfDH-70" value="" style="shape=partialRectangle;html=1;whiteSpace=wrap;collapsible=0;dropTarget=0;pointerEvents=0;fillColor=none;top=0;left=0;bottom=0;right=0;points=[[0,0.5],[1,0.5]];portConstraint=eastwest;" vertex="1" parent="z7pjndrLc557WYnpNfDH-59">
          <mxGeometry y="80" width="240" height="40" as="geometry" />
        </mxCell>
        <mxCell id="z7pjndrLc557WYnpNfDH-71" style="shape=partialRectangle;html=1;whiteSpace=wrap;connectable=0;fillColor=#d80073;top=0;left=0;bottom=0;right=0;overflow=hidden;strokeColor=#A50040;fontColor=#ffffff;" vertex="1" parent="z7pjndrLc557WYnpNfDH-70">
          <mxGeometry width="60" height="40" as="geometry" />
        </mxCell>
        <mxCell id="z7pjndrLc557WYnpNfDH-72" value="" style="shape=partialRectangle;html=1;whiteSpace=wrap;connectable=0;top=0;left=0;bottom=0;right=0;overflow=hidden;" vertex="1" parent="z7pjndrLc557WYnpNfDH-70">
          <mxGeometry x="60" width="60" height="40" as="geometry" />
        </mxCell>
        <mxCell id="z7pjndrLc557WYnpNfDH-73" value="" style="shape=partialRectangle;html=1;whiteSpace=wrap;connectable=0;fillColor=none;top=0;left=0;bottom=0;right=0;overflow=hidden;" vertex="1" parent="z7pjndrLc557WYnpNfDH-70">
          <mxGeometry x="120" width="60" height="40" as="geometry" />
        </mxCell>
        <mxCell id="z7pjndrLc557WYnpNfDH-74" style="shape=partialRectangle;html=1;whiteSpace=wrap;connectable=0;top=0;left=0;bottom=0;right=0;overflow=hidden;" vertex="1" parent="z7pjndrLc557WYnpNfDH-70">
          <mxGeometry x="180" width="60" height="40" as="geometry" />
        </mxCell>
        <mxCell id="z7pjndrLc557WYnpNfDH-75" value="" style="shape=partialRectangle;html=1;whiteSpace=wrap;collapsible=0;dropTarget=0;pointerEvents=0;fillColor=none;top=0;left=0;bottom=0;right=0;points=[[0,0.5],[1,0.5]];portConstraint=eastwest;" vertex="1" parent="z7pjndrLc557WYnpNfDH-59">
          <mxGeometry y="120" width="240" height="40" as="geometry" />
        </mxCell>
        <mxCell id="z7pjndrLc557WYnpNfDH-76" style="shape=partialRectangle;html=1;whiteSpace=wrap;connectable=0;top=0;left=0;bottom=0;right=0;overflow=hidden;strokeColor=#001DBC;fontColor=#ffffff;fillColor=none;" vertex="1" parent="z7pjndrLc557WYnpNfDH-75">
          <mxGeometry width="60" height="40" as="geometry" />
        </mxCell>
        <mxCell id="z7pjndrLc557WYnpNfDH-77" value="" style="shape=partialRectangle;html=1;whiteSpace=wrap;connectable=0;fillColor=none;top=0;left=0;bottom=0;right=0;overflow=hidden;" vertex="1" parent="z7pjndrLc557WYnpNfDH-75">
          <mxGeometry x="60" width="60" height="40" as="geometry" />
        </mxCell>
        <mxCell id="z7pjndrLc557WYnpNfDH-78" value="" style="shape=partialRectangle;html=1;whiteSpace=wrap;connectable=0;top=0;left=0;bottom=0;right=0;overflow=hidden;strokeColor=#001DBC;fontColor=#ffffff;fillColor=none;" vertex="1" parent="z7pjndrLc557WYnpNfDH-75">
          <mxGeometry x="120" width="60" height="40" as="geometry" />
        </mxCell>
        <mxCell id="z7pjndrLc557WYnpNfDH-79" style="shape=partialRectangle;html=1;whiteSpace=wrap;connectable=0;fillColor=none;top=0;left=0;bottom=0;right=0;overflow=hidden;" vertex="1" parent="z7pjndrLc557WYnpNfDH-75">
          <mxGeometry x="180" width="60" height="40" as="geometry" />
        </mxCell>
        <mxCell id="z7pjndrLc557WYnpNfDH-80" value="" style="shape=table;html=1;whiteSpace=wrap;startSize=0;container=1;collapsible=0;childLayout=tableLayout;rowLines=1;columnLines=1;fillColor=none;" vertex="1" parent="1">
          <mxGeometry x="320" y="760" width="240" height="160" as="geometry" />
        </mxCell>
        <mxCell id="z7pjndrLc557WYnpNfDH-81" style="shape=partialRectangle;html=1;whiteSpace=wrap;collapsible=0;dropTarget=0;pointerEvents=0;fillColor=none;top=0;left=0;bottom=0;right=0;points=[[0,0.5],[1,0.5]];portConstraint=eastwest;" vertex="1" parent="z7pjndrLc557WYnpNfDH-80">
          <mxGeometry width="240" height="40" as="geometry" />
        </mxCell>
        <mxCell id="z7pjndrLc557WYnpNfDH-82" style="shape=partialRectangle;html=1;whiteSpace=wrap;connectable=0;fillColor=#0050ef;top=0;left=0;bottom=0;right=0;overflow=hidden;strokeColor=#001DBC;fontColor=#ffffff;" vertex="1" parent="z7pjndrLc557WYnpNfDH-81">
          <mxGeometry width="60" height="40" as="geometry" />
        </mxCell>
        <mxCell id="z7pjndrLc557WYnpNfDH-83" style="shape=partialRectangle;html=1;whiteSpace=wrap;connectable=0;fillColor=#0050ef;top=0;left=0;bottom=0;right=0;overflow=hidden;strokeColor=#001DBC;fontColor=#ffffff;" vertex="1" parent="z7pjndrLc557WYnpNfDH-81">
          <mxGeometry x="60" width="60" height="40" as="geometry" />
        </mxCell>
        <mxCell id="z7pjndrLc557WYnpNfDH-84" style="shape=partialRectangle;html=1;whiteSpace=wrap;connectable=0;fillColor=#0050ef;top=0;left=0;bottom=0;right=0;overflow=hidden;strokeColor=#001DBC;fontColor=#ffffff;" vertex="1" parent="z7pjndrLc557WYnpNfDH-81">
          <mxGeometry x="120" width="60" height="40" as="geometry" />
        </mxCell>
        <mxCell id="z7pjndrLc557WYnpNfDH-85" style="shape=partialRectangle;html=1;whiteSpace=wrap;connectable=0;fillColor=#0050ef;top=0;left=0;bottom=0;right=0;overflow=hidden;strokeColor=#001DBC;fontColor=#ffffff;" vertex="1" parent="z7pjndrLc557WYnpNfDH-81">
          <mxGeometry x="180" width="60" height="40" as="geometry" />
        </mxCell>
        <mxCell id="z7pjndrLc557WYnpNfDH-86" value="" style="shape=partialRectangle;html=1;whiteSpace=wrap;collapsible=0;dropTarget=0;pointerEvents=0;fillColor=none;top=0;left=0;bottom=0;right=0;points=[[0,0.5],[1,0.5]];portConstraint=eastwest;" vertex="1" parent="z7pjndrLc557WYnpNfDH-80">
          <mxGeometry y="40" width="240" height="40" as="geometry" />
        </mxCell>
        <mxCell id="z7pjndrLc557WYnpNfDH-87" style="shape=partialRectangle;html=1;whiteSpace=wrap;connectable=0;fillColor=#0050ef;top=0;left=0;bottom=0;right=0;overflow=hidden;strokeColor=#001DBC;fontColor=#ffffff;" vertex="1" parent="z7pjndrLc557WYnpNfDH-86">
          <mxGeometry width="60" height="40" as="geometry" />
        </mxCell>
        <mxCell id="z7pjndrLc557WYnpNfDH-88" value="" style="shape=partialRectangle;html=1;whiteSpace=wrap;connectable=0;top=0;left=0;bottom=0;right=0;overflow=hidden;fillColor=#0050ef;strokeColor=#001DBC;fontColor=#ffffff;" vertex="1" parent="z7pjndrLc557WYnpNfDH-86">
          <mxGeometry x="60" width="60" height="40" as="geometry" />
        </mxCell>
        <mxCell id="z7pjndrLc557WYnpNfDH-89" value="" style="shape=partialRectangle;html=1;whiteSpace=wrap;connectable=0;top=0;left=0;bottom=0;right=0;overflow=hidden;strokeColor=#A50040;fontColor=#ffffff;fillColor=none;" vertex="1" parent="z7pjndrLc557WYnpNfDH-86">
          <mxGeometry x="120" width="60" height="40" as="geometry" />
        </mxCell>
        <mxCell id="z7pjndrLc557WYnpNfDH-90" style="shape=partialRectangle;html=1;whiteSpace=wrap;connectable=0;top=0;left=0;bottom=0;right=0;overflow=hidden;strokeColor=#A50040;fontColor=#ffffff;fillColor=none;" vertex="1" parent="z7pjndrLc557WYnpNfDH-86">
          <mxGeometry x="180" width="60" height="40" as="geometry" />
        </mxCell>
        <mxCell id="z7pjndrLc557WYnpNfDH-91" value="" style="shape=partialRectangle;html=1;whiteSpace=wrap;collapsible=0;dropTarget=0;pointerEvents=0;fillColor=none;top=0;left=0;bottom=0;right=0;points=[[0,0.5],[1,0.5]];portConstraint=eastwest;" vertex="1" parent="z7pjndrLc557WYnpNfDH-80">
          <mxGeometry y="80" width="240" height="40" as="geometry" />
        </mxCell>
        <mxCell id="z7pjndrLc557WYnpNfDH-92" style="shape=partialRectangle;html=1;whiteSpace=wrap;connectable=0;top=0;left=0;bottom=0;right=0;overflow=hidden;strokeColor=#A50040;fontColor=#ffffff;fillColor=none;" vertex="1" parent="z7pjndrLc557WYnpNfDH-91">
          <mxGeometry width="60" height="40" as="geometry" />
        </mxCell>
        <mxCell id="z7pjndrLc557WYnpNfDH-93" value="" style="shape=partialRectangle;html=1;whiteSpace=wrap;connectable=0;top=0;left=0;bottom=0;right=0;overflow=hidden;" vertex="1" parent="z7pjndrLc557WYnpNfDH-91">
          <mxGeometry x="60" width="60" height="40" as="geometry" />
        </mxCell>
        <mxCell id="z7pjndrLc557WYnpNfDH-94" value="" style="shape=partialRectangle;html=1;whiteSpace=wrap;connectable=0;fillColor=none;top=0;left=0;bottom=0;right=0;overflow=hidden;" vertex="1" parent="z7pjndrLc557WYnpNfDH-91">
          <mxGeometry x="120" width="60" height="40" as="geometry" />
        </mxCell>
        <mxCell id="z7pjndrLc557WYnpNfDH-95" style="shape=partialRectangle;html=1;whiteSpace=wrap;connectable=0;top=0;left=0;bottom=0;right=0;overflow=hidden;" vertex="1" parent="z7pjndrLc557WYnpNfDH-91">
          <mxGeometry x="180" width="60" height="40" as="geometry" />
        </mxCell>
        <mxCell id="z7pjndrLc557WYnpNfDH-96" value="" style="shape=partialRectangle;html=1;whiteSpace=wrap;collapsible=0;dropTarget=0;pointerEvents=0;fillColor=none;top=0;left=0;bottom=0;right=0;points=[[0,0.5],[1,0.5]];portConstraint=eastwest;" vertex="1" parent="z7pjndrLc557WYnpNfDH-80">
          <mxGeometry y="120" width="240" height="40" as="geometry" />
        </mxCell>
        <mxCell id="z7pjndrLc557WYnpNfDH-97" style="shape=partialRectangle;html=1;whiteSpace=wrap;connectable=0;top=0;left=0;bottom=0;right=0;overflow=hidden;strokeColor=#001DBC;fontColor=#ffffff;fillColor=none;" vertex="1" parent="z7pjndrLc557WYnpNfDH-96">
          <mxGeometry width="60" height="40" as="geometry" />
        </mxCell>
        <mxCell id="z7pjndrLc557WYnpNfDH-98" value="" style="shape=partialRectangle;html=1;whiteSpace=wrap;connectable=0;fillColor=none;top=0;left=0;bottom=0;right=0;overflow=hidden;" vertex="1" parent="z7pjndrLc557WYnpNfDH-96">
          <mxGeometry x="60" width="60" height="40" as="geometry" />
        </mxCell>
        <mxCell id="z7pjndrLc557WYnpNfDH-99" value="" style="shape=partialRectangle;html=1;whiteSpace=wrap;connectable=0;top=0;left=0;bottom=0;right=0;overflow=hidden;strokeColor=#001DBC;fontColor=#ffffff;fillColor=none;" vertex="1" parent="z7pjndrLc557WYnpNfDH-96">
          <mxGeometry x="120" width="60" height="40" as="geometry" />
        </mxCell>
        <mxCell id="z7pjndrLc557WYnpNfDH-100" style="shape=partialRectangle;html=1;whiteSpace=wrap;connectable=0;fillColor=none;top=0;left=0;bottom=0;right=0;overflow=hidden;" vertex="1" parent="z7pjndrLc557WYnpNfDH-96">
          <mxGeometry x="180" width="60" height="40" as="geometry" />
        </mxCell>
      </root>
    </mxGraphModel>
  </diagram>
</mxfile>
